# xmcd
#
# Track frame offsets:
#	150
#	14535
#	25615
#	42917
#	59932
#	86285
#	98127
#	110995
#	123727
#	144832
#	172070
#	184310
#	198645
#	210247
#	223874
#
# Disc length: 3328 seconds
#
# Revision: 0
# Processed by: cddbd v1.5.2PL0 Copyright (c) Steve Scherf et al.
# Submitted via: audiograbber 1.83.01
#
DISCID=e30cfe0f
DTITLE=Cpmpilation - L'âme du Gosêl cd1
DYEAR=2007
DGENRE=Gospel
TTITLE0=The Edwins Hawkins Sngers - Oh Happy Day
TTITLE1=Marion Williams - He's Got the Whole World In His Handle
TTITLE2=Alex Bradford - How Many Times
TTITLE3=Mahalia Jackson - Nobody Knows the Trouble I Have Seen
TTITLE4=The Abyssinian Baptist Gospel Choir - Said I Wasn't Gonna Tell Nobody
TTITLE5=The Golden Gate Quartet - Shardrack
TTITLE6=Clara Ward - The Day Is Past And Gone
TTITLE7=The Golden Gate Quartet - Way Down In Egypt Land
TTITLE8=Marion Williams - Didn't It Rain
TTITLE9=Bessie Griffin - Old Ship Of Zion
TTITLE10=The Staple Singers - Pray On
TTITLE11=The Golden Gate Quartet - Hush !
TTITLE12=Dorothy Love Coates and The Original Gospel Harmoneties - That's Enough
TTITLE13=Ira Tucker and the Dixie Hummingbird - I'll Never Forget
TTITLE14=Louis Armstrong - We Shall Overcome
EXTD=
EXTT0=
EXTT1=
EXTT2=
EXTT3=
EXTT4=
EXTT5=
EXTT6=
EXTT7=
EXTT8=
EXTT9=
EXTT10=
EXTT11=
EXTT12=
EXTT13=
EXTT14=
PLAYORDER=
